<svg version="1.2" xmlns="http://www.w3.org/2000/svg" viewBox="0 0 96 96" width="96" height="96">
	<style>
		.s0 { opacity: .96;fill: #000000 } 
	</style>
	<path id="Path 0" fill-rule="evenodd" class="s0" d="m48.17 8c6.2 0 8.94 0.37 9.19 1.25 0.2 0.69 0.78 2.6 1.27 4.25 0.57 1.89 1.68 3.12 3 3.32 1.14 0.17 3.16-0.39 4.48-1.26 1.31-0.87 2.73-1.57 3.14-1.57 0.41 0.01 3.46 2.6 6.78 5.76 3.32 3.16 6.01 6.43 5.98 7.25-0.03 0.82-0.76 2.18-1.62 3-1.02 0.99-1.35 2.44-0.97 4.25 0.42 1.97 1.36 2.91 3.33 3.33 1.51 0.32 3.31 0.77 4 1 0.88 0.3 1.25 3.11 1.25 9.42 0 6.31-0.37 9.12-1.25 9.42-0.69 0.23-2.49 0.68-4 1-1.97 0.42-2.91 1.36-3.33 3.33-0.38 1.81-0.05 3.26 0.97 4.25 0.86 0.83 1.57 2.17 1.58 3 0 0.83-2.57 4.09-5.73 7.26-3.16 3.17-6.41 5.78-7.24 5.79-0.83 0.02-2.17-0.69-3-1.57-0.89-0.96-2.67-1.48-4.37-1.3-1.94 0.22-3.24-0.27-4-1.49-0.91-1.46-0.75-2.09 0.87-3.27 1.1-0.8 3.12-1.44 4.5-1.42 1.37 0.02 3.17 0.46 4 0.97 1.11 0.7 2.33 0.12 4.69-2.26 2.63-2.66 3-3.55 2.14-5.21-0.57-1.1-0.77-3.69-0.44-5.75 0.4-2.47 1.64-4.6 3.61-6.25 1.65-1.37 3.45-2.5 4-2.5 0.55 0 1-1.8 1-4 0-2.2-0.45-4-1-4-0.55 0-2.35-1.12-4-2.5-1.97-1.65-3.21-3.78-3.61-6.25-0.33-2.06-0.13-4.65 0.44-5.75 0.86-1.64 0.56-2.48-1.64-4.65-2.39-2.35-3.26-2.59-7.69-2.13-4.33 0.45-5.43 0.17-8.25-2.1-1.79-1.44-3.48-3.52-3.75-4.62-0.4-1.58-1.33-2-4.5-2-2.2 0-4 0.45-4 1 0 0.55-1.13 2.35-2.5 4-1.56 1.87-3.44 3-5 3-1.38 0-2.84-0.7-3.25-1.56-0.51-1.07 0.13-2.35 2-4 1.69-1.5 2.69-3.34 2.58-4.77-0.09-1.29 0.21-2.64 0.67-3 0.46-0.37 4.81-0.67 9.67-0.67zm-20.95 6c0.98 0 2.02 0.79 2.31 1.75 0.35 1.16-0.95 3.28-3.82 6.25-4.21 4.36-4.31 4.62-3.28 8.22 0.88 3.04 0.75 4.35-0.68 7.25-1.02 2.05-3.01 4.05-4.76 4.78-2.64 1.1-3.01 1.74-3 5.25 0.01 3.5 0.38 4.16 3.01 5.25 1.65 0.69 3.67 2.6 4.5 4.25 0.82 1.65 1.49 4.24 1.48 5.75 0 1.51-0.43 3.42-0.95 4.25-0.69 1.1-0.22 2.23 1.76 4.21 2.43 2.42 3.23 2.64 7.71 2.14 4.25-0.48 5.43-0.21 7.9 1.79 1.6 1.3 3.29 3.37 3.75 4.61 0.76 2.02 1.53 2.25 7.35 2.25 4.89 0 6.62 0.37 7 1.5 0.27 0.83-0.06 2.2-0.75 3.04-0.94 1.16-3.18 1.54-9 1.5-5.09-0.02-8.01-0.47-8.5-1.29-0.41-0.69-1.2-2.6-1.75-4.25-0.75-2.25-1.69-3.06-3.75-3.25-1.51-0.14-3.76 0.42-5 1.25-2.15 1.43-2.52 1.23-8.51-4.75-3.44-3.44-6.28-6.7-6.29-7.25-0.02-0.55 0.68-1.67 1.55-2.5 0.87-0.83 1.58-2.4 1.56-3.5-0.01-1.1-0.6-2.57-1.29-3.27-0.7-0.69-2.17-1.24-3.27-1.2-1.1 0.03-2.56-0.52-3.25-1.24-0.83-0.87-1.16-4.04-0.75-18.03l3.4-1.13c1.88-0.62 3.9-1.91 4.5-2.87 0.85-1.34 0.65-2.54-2.9-8.82l5.97-5.97c3.28-3.28 6.77-5.97 7.75-5.97zm23.28 10.5l0.25 7.25c0.22 6.3 0.51 7.32 2.25 7.75 1.1 0.27 2.67 1.85 3.5 3.5 0.82 1.65 1.49 4.01 1.48 5.25-0.02 1.59 1.02 2.77 3.5 4 3.07 1.52 3.58 1.56 4.02 0.25 0.28-0.83 0.49-2.96 0.48-4.75-0.01-1.79-0.93-5.27-2.04-7.75-1.11-2.48-1.77-5.06-1.48-5.75 0.3-0.69 1.51-1.14 2.7-1 1.38 0.16 2.88 1.69 4.18 4.25 1.12 2.2 2.24 5.8 2.49 8 0.26 2.2-0.14 6.25-0.88 9-0.99 3.71-2.65 6.3-6.39 10.03-3.08 3.07-6.62 5.51-9.06 6.24-2.2 0.66-5.58 1.2-7.5 1.2-1.93 0-5.3-0.54-7.5-1.2-2.45-0.74-5.96-3.16-9.03-6.24-3.08-3.07-5.5-6.58-6.24-9.03-0.66-2.2-1.2-5.58-1.2-7.5 0-1.92 0.54-5.3 1.2-7.5 0.73-2.44 3.16-5.97 6.24-9.04 2.76-2.78 6.6-5.56 8.53-6.18 1.92-0.62 5.07-1.05 10.5-0.78zm-15.69 11.11c-0.93 1.04-2.39 3.58-3.25 5.64-0.86 2.06-1.56 5.1-1.56 6.75 0 1.65 0.22 3.67 0.5 4.5 0.44 1.31 0.95 1.27 4.02-0.25 2.48-1.23 3.52-2.41 3.5-4-0.01-1.24 0.65-3.6 1.48-5.25 0.82-1.65 2.4-3.23 3.5-3.5 1.63-0.41 2-1.33 2-5 0-2.48-0.11-4.49-0.25-4.48-0.14 0.01-2.05 0.85-4.25 1.86-2.2 1.01-4.76 2.69-5.69 3.73zm9.44 13.03c0.14 0.91 1.04 2.14 2 2.75 1.28 0.81 2.22 0.81 3.5 0 0.96-0.61 1.86-1.84 2-2.75 0.14-0.9-0.31-2.34-1-3.18-0.69-0.85-1.99-1.53-2.89-1.5-0.9 0.02-2.14 0.71-2.75 1.54-0.61 0.83-1 2.24-0.86 3.14zm-8.51 12.55c0.97 0.93 3.45 2.39 5.51 3.25 2.06 0.86 5.1 1.56 6.75 1.56 1.65 0 4.69-0.7 6.75-1.56 2.06-0.86 4.54-2.32 5.51-3.25 1.67-1.61 1.6-1.78-1.5-3.54-2.88-1.64-3.73-1.71-7.26-0.58-3.1 1-4.67 1.02-7 0.12-1.65-0.64-3.45-1.14-4-1.1-0.55 0.03-2.24 0.81-3.76 1.73-2.63 1.6-2.68 1.76-1 3.37z"/>
</svg>