<svg version="1.2" xmlns="http://www.w3.org/2000/svg" viewBox="0 0 96 96" width="96" height="96">
	<style>
		.s0 { opacity: .85;fill: #000000 } 
	</style>
	<path id="Path 0" fill-rule="evenodd" class="s0" d="m68.35 4.02c1.39 0.01 5.95 3.82 12.88 10.75 5.91 5.9 10.74 11.52 10.75 12.48 0.01 0.96-0.77 2.41-1.73 3.22-0.96 0.81-5.01 3.73-9 6.5-3.99 2.77-8.54 6.94-10.13 9.28-1.58 2.34-3.63 6.5-4.56 9.25-0.92 2.75-1.99 8.47-3.06 20.44l-5 1.09c-2.75 0.6-7.25 1.56-10 2.13-2.75 0.57-9.84 2.46-15.77 4.19-8.6 2.52-11.01 2.9-12 1.9q-1.23-1.25-0.23-2.21c0.55-0.52 6.63-2.48 13.5-4.36 6.88-1.87 15.54-3.92 26-5.68l0.01-3.75c0.01-2.06 0.69-6.56 1.5-10 0.82-3.44 2.44-8.16 3.61-10.5 1.16-2.34 2.85-5.05 3.75-6.03 1.53-1.68 1.26-2.15-4.37-7.7-4.3-4.24-5.79-6.36-5.25-7.47 0.54-1.12 1.24-1.29 2.5-0.63 0.96 0.51 4 3.17 11.75 10.9l5.62-4.16c3.09-2.29 6.37-4.61 7.29-5.16 1.42-0.85 0.21-2.46-17.91-20.55l-4.17 6.28c-2.29 3.45-6.34 8.27-9 10.72-2.65 2.45-7.08 5.49-9.83 6.75-2.75 1.26-8.89 2.86-22.28 4.8l-2.13 10c-1.17 5.5-3.63 14.95-5.47 21-1.84 6.05-3.69 11.9-4.12 13-0.42 1.1 4.22-2.95 10.32-9 10.1-10.01 11.03-11.24 10.39-13.72-0.56-2.14-0.18-3.27 1.79-5.28 1.41-1.44 3.59-2.53 5-2.5 1.38 0.02 3.52 1.05 4.78 2.27 1.25 1.23 2.27 3.36 2.27 4.73 0 1.38-1.02 3.55-2.27 4.83-1.72 1.77-3.01 2.21-5.28 1.82-2.77-0.48-4.15 0.62-17.73 14.16-10.06 10.03-15.07 14.37-15.79 13.69-0.73-0.69 0.3-4.98 3.36-14 2.42-7.15 5.33-16.83 6.47-21.5 1.14-4.67 2.77-11.99 5.19-24l4.25 0.01c2.34 0.01 6.73-0.46 9.75-1.03 3.03-0.57 7.75-2.06 10.5-3.31 2.75-1.24 6.8-4.08 9-6.31 2.2-2.22 5.96-7.03 8.35-10.7 3.15-4.83 4.94-6.66 6.5-6.64zm-31.96 54.23c0.38 1.09 1.46 1.66 2.86 1.5 1.67-0.19 2.25-0.9 2.25-2.75 0-1.81-0.61-2.59-2.2-2.82-1.21-0.18-2.49 0.27-2.85 1-0.37 0.73-0.39 2.11-0.06 3.07z"/>
</svg>