<svg version="1.2" xmlns="http://www.w3.org/2000/svg" viewBox="0 0 96 96" width="96" height="96">
	<style>
		.s0 { opacity: .74;fill: #000000 } 
	</style>
	<path id="Path 0" class="s0" d="m36.5 32.76c-14.84 14.71-26.88 27.43-26.75 28.25 0.13 0.82 6.43 7.68 14 15.24 7.56 7.56 14.2 13.74 14.75 13.75 0.55 0 9.66-8.66 20.25-19.25 10.58-10.59 19.25-19.81 19.25-20.5 0-0.69-0.56-1.44-1.25-1.67-0.69-0.24-9.35 7.64-19.25 17.5-9.9 9.86-18.45 17.92-19 17.91-0.55-0.01-5.84-5.08-11.76-11.26-5.92-6.17-10.77-11.46-10.77-11.73-0.01-0.27 1.36-1.85 3.05-3.5 2.6-2.55 3.31-2.81 4.77-1.74 0.94 0.69 2.29 1.59 3 2 0.7 0.41 1.83 0.16 2.5-0.54 0.95-1 0.94-1.65-0.05-3-0.69-0.95-1.53-2.39-1.87-3.22-0.38-0.93 0.58-2.65 2.5-4.5l3.11-3c8.47 8.54 10.38 9.78 11.47 9.25 0.85-0.41 1.54-1.31 1.54-2-0.01-0.69-2.15-3.41-4.75-6.06l-4.74-4.81 7.5-6.88c3.1 3.1 4.45 4 5 4 0.55 0 1.34-0.68 1.75-1.5 0.46-0.92 0.08-2.18-0.97-3.25-0.95-0.96-1.73-2.2-1.74-2.75 0-0.55 1.01-2.24 2.24-3.75 1.23-1.51 2.91-2.76 3.73-2.76 0.82-0.01 3.51 2.02 5.99 4.51 2.48 2.49 4.84 4.52 5.25 4.51 0.41 0 1.09-0.71 1.5-1.56 0.53-1.09-0.71-2.99-4.25-6.5l-5-4.95c8.54-8.46 9.78-10.36 9.25-11.45-0.41-0.85-1.32-1.55-2.01-1.55-0.69 0-13.4 12.04-28.24 26.76z"/>
</svg>