<svg version="1.2" xmlns="http://www.w3.org/2000/svg" viewBox="0 0 96 96" width="96" height="96">
	<style>
		.s0 { opacity: .71;fill: #000000 } 
	</style>
	<path id="Path 0" fill-rule="evenodd" class="s0" d="m49.5 21.28c6.98 0.28 9.12 0.86 16.75 4.52 7.02 3.37 10.54 5.93 17.8 12.95 4.97 4.81 9.02 9.31 9 10-0.03 0.69-2.64 3.79-5.8 6.88-3.16 3.1-8.22 7.29-11.25 9.32-3.03 2.02-7.08 4.39-9 5.26-1.92 0.88-5.64 2.31-8.25 3.19-2.61 0.88-7.45 1.6-10.75 1.6-3.3 0-8.14-0.72-10.75-1.6-2.61-0.88-6.33-2.31-8.25-3.19-1.93-0.87-6.2-3.39-9.5-5.59-3.3-2.21-8.36-6.4-11.25-9.32-2.89-2.91-5.25-5.97-5.25-6.8 0-0.83 0.45-1.5 1-1.5 0.55 0 2.69 1.73 4.75 3.84 2.06 2.11 6.34 5.93 9.5 8.5 3.16 2.56 6.09 4.64 6.5 4.62 0.41-0.02-0.28-2.16-1.54-4.75-1.51-3.09-2.2-6.08-1.71-12.71h12.94l0.76 4c0.47 2.45 1.96 5.16 3.85 7 2.72 2.65 3.78 3 9 3 5.34 0 6.23-0.31 9.18-3.27 2.96-2.96 3.27-3.83 3.27-9.23 0-5.4-0.31-6.27-3.27-9.23-2.96-2.96-3.84-3.27-9.19-3.27-5.33 0-6.26 0.32-9.23 3.23-1.82 1.78-3.87 3.25-4.56 3.25-0.69 0.01-1.25-0.43-1.25-0.98 0-0.55 1.46-2.52 3.25-4.37 1.79-1.86 5.05-3.95 7.25-4.66 3.26-1.05 4.83-1.05 8.5 0 2.48 0.71 5.91 2.69 7.62 4.41 1.72 1.71 3.7 5.15 4.41 7.62 1.05 3.67 1.05 5.24 0 8.5-0.71 2.2-2.69 5.41-4.41 7.12-1.71 1.72-5.14 3.7-7.62 4.41-3.5 1-5.34 1.03-8.25 0.13-2.06-0.64-5.1-2.28-6.75-3.66-1.65-1.37-3.56-4.31-4.25-6.52-1.17-3.77-1.49-4.03-8.75-3.98l1.5 4.75c0.82 2.61 2.78 6.33 4.36 8.25 1.57 1.92 4.84 4.53 7.25 5.79 2.42 1.25 6.19 2.55 8.39 2.88 2.61 0.38 5.91-0.04 9.5-1.23 3.56-1.17 6.93-3.24 9.55-5.87 2.41-2.41 4.76-6.11 5.77-9.07 0.94-2.75 1.7-6.12 1.7-7.5 0-1.37-0.76-4.75-1.7-7.5-1.02-2.97-3.36-6.65-5.77-9.05-2.4-2.41-6.08-4.75-9.05-5.77-2.75-0.94-6.24-1.7-7.75-1.69-1.51 0-5.11 0.9-8 1.98-2.96 1.11-6.84 3.62-8.89 5.75-2.01 2.08-4.6 5.69-7.86 12.28h-6.5c-4.17 0-6.74-0.45-7.18-1.25-0.41-0.77 1.64-3.36 5.36-6.75 3.31-3.02 8.46-6.82 11.42-8.43 2.97-1.61 7.65-3.76 10.4-4.77 3.71-1.37 7.06-1.76 13-1.52zm-34 18.64c4.82 0.07 5.87-0.66 7-2.92 0.82-1.65 1.35-3.2 1.17-3.44-0.18-0.24-2.1 1.09-4.25 2.96zm59.24 10.08c-0.29 4.09-1.26 7.89-2.6 10.25-1.18 2.06-1.8 3.76-1.39 3.78 0.41 0.02 3-1.63 5.75-3.65 2.75-2.03 6.27-4.86 7.83-6.29 1.56-1.42 3.24-3.27 3.72-4.09 0.65-1.1-0.26-2.72-3.35-6-2.32-2.48-6.14-5.97-8.47-7.75-2.33-1.79-4.45-3.25-4.71-3.25-0.26 0 0.46 2.36 1.6 5.25 1.61 4.06 1.98 6.71 1.62 11.75z"/>
</svg>